<svg xmlns="http://www.w3.org/2000/svg" viewBox="0 0 246 246"><title>CodeCompare_1</title><rect width="246" height="246" fill="#fff" opacity="0"/><polyline points="195 81.422 195 164.563 123 206.141 51 164.563 51 81.422 123 39.859 195 81.422" fill="#00cf8a"/><polyline points="123 39.859 51 81.422 123 123.002 123 123 123 39.859" fill="#26d69b"/><polyline points="123 123 51 164.563 123 206.141 123 123.002" fill="#00bc6e"/><polyline points="195 81.422 123.002 123.001 195 164.563 195 164.561 195 81.422" fill="#00b25f"/><polyline points="123 39.859 123 123 195 81.422 123 39.859" fill="#0fbd77"/><polyline points="123.002 123.001 123 123.002 123 206.141 195 164.561 123 123" fill="#009446"/><polyline points="123 123 123 123.002 123.002 123.001 123 123" fill="#09a456"/><polygon points="117.15 77.218 106.803 87.565 136.354 87.565 111.599 112.32 111.599 126.952 143.67 94.881 143.67 124.432 154.017 114.084 154.017 77.218 117.15 77.218" fill="#fff"/><polygon points="109.646 158.814 134.401 134.059 134.401 119.427 102.33 151.498 102.33 121.947 91.983 132.294 91.983 169.161 128.85 169.161 139.197 158.814 109.646 158.814" fill="#fff"/></svg>